<?xml version="1.0" standalone="no"?>
<!DOCTYPE svg PUBLIC "-//W3C//DTD SVG 20010904//EN"
 "http://www.w3.org/TR/2001/REC-SVG-20010904/DTD/svg10.dtd">
<svg version="1.0" xmlns="http://www.w3.org/2000/svg"
 width="160px" height="150px" viewBox="0 10 110"
 preserveAspectRatio="xMidYMid meet">
<metadata>
Created by potrace 1.15, written by Peter Selinger 2001-2017
</metadata>
<g transform="translate(0.000000,600.000000) scale(0.100000,-0.100000)"
fill="#000000" stroke="none">
<path d="M0 3000 l0 -3000 289 0 c312 0 304 -1 294 53 -4 18 1 34 12 47 16 17
16 21 0 54 -17 35 -16 82 1 235 7 57 11 63 35 48 16 -10 21 -9 28 2 19 29 38
3 45 -61 17 -145 18 -199 3 -216 -25 -29 -27 -49 -6 -68 12 -11 19 -30 19 -56
0 -37 1 -38 35 -38 26 0 35 4 37 18 0 9 2 22 3 27 2 6 3 16 4 23 0 7 6 10 12
6 6 -4 8 -20 4 -40 l-6 -34 5096 0 5095 0 0 461 0 461 -62 -3 c-35 -2 -68 0
-74 3 -6 4 -14 5 -18 1 -8 -8 -229 -7 -256 2 -17 6 -25 23 -21 48 0 4 -3 7 -9
7 -5 0 -10 -4 -10 -10 0 -5 -5 -10 -11 -10 -6 0 -8 9 -4 20 5 15 1 22 -17 29
-15 7 -18 10 -6 10 16 1 38 48 38 82 0 10 -9 20 -19 24 -10 3 -21 14 -24 24
-5 20 -45 31 -113 31 -23 0 -46 5 -49 11 -4 6 -13 8 -21 5 -7 -3 -11 0 -8 8 3
8 25 11 67 10 40 -1 70 4 85 14 14 9 35 13 56 9 31 -5 35 -2 61 39 15 24 33
44 40 44 7 0 18 6 24 14 6 7 32 19 57 26 66 19 113 2 165 -60 47 -56 58 -62
99 -53 l30 6 0 2042 0 2042 -197 2 c-191 3 -252 5 -263 11 -7 4 -28 7 -65 9
l-30 1 33 16 c33 17 42 34 18 34 -8 0 -17 -8 -19 -17 -4 -17 -5 -17 -6 -1 0
10 12 24 28 32 31 17 151 20 151 5 0 -6 4 -7 10 -4 23 14 -16 32 -67 31 -33
-1 -54 3 -57 11 -3 7 -17 11 -35 8 -61 -7 -98 60 -41 76 24 7 23 7 -7 10 -18
1 -39 2 -45 3 -16 1 -32 25 -23 34 4 4 36 7 72 7 47 0 68 5 76 16 15 19 78 34
133 30 57 -4 65 16 12 26 -36 7 -43 13 -46 33 -4 41 55 81 123 81 71 1 113
-25 149 -91 15 -27 30 -50 34 -51 4 0 19 -2 35 -3 l27 -2 0 178 0 178 -1564 0
-1564 0 -1 -155 c-1 -96 3 -163 9 -176 11 -20 14 -20 447 -14 240 4 447 11
460 16 15 5 21 14 17 24 -8 20 23 55 48 55 10 0 21 -7 24 -15 12 -29 44 -17
61 23 18 44 28 52 70 52 25 0 38 -8 66 -42 19 -24 37 -55 41 -70 5 -22 14 -29
49 -36 29 -7 34 -10 17 -11 -20 -1 -22 -3 -10 -11 8 -5 23 -7 33 -4 9 3 17 1
17 -3 0 -16 -24 -33 -46 -33 -12 0 -26 -6 -32 -12 -15 -19 -10 -68 8 -68 37
-1 -14 -17 -57 -19 -67 -2 -92 -28 -55 -58 9 -8 11 -12 5 -8 -7 3 -13 3 -13
-2 1 -22 21 -33 75 -38 121 -13 112 -31 -20 -40 -49 -3 -106 -9 -126 -14 -21
-5 -42 -5 -49 -1 -6 4 -31 5 -53 3 -67 -7 -95 9 -108 62 -6 25 -16 48 -21 52
-10 5 -503 4 -993 -2 -250 -4 -247 -3 -240 -15 3 -5 2 -10 -3 -10 -14 0 -32
48 -32 86 0 20 -9 47 -20 61 -16 20 -17 28 -7 44 6 10 21 19 32 19 54 1 263
20 278 26 17 6 17 7 0 19 -14 10 -21 10 -38 -1 -19 -12 -22 -11 -33 16 -10 22
-11 34 -2 50 6 12 9 24 6 27 -2 3 -1 16 4 29 6 14 6 26 0 29 -6 4 -10 -2 -11
-12 0 -10 -3 -13 -5 -6 -3 6 2 23 12 37 10 16 12 26 5 26 -6 0 -11 7 -11 15 0
8 4 15 9 15 6 0 5 14 0 35 -6 19 -7 40 -4 45 4 6 -57 10 -170 10 -168 0 -178
-1 -225 -25 -28 -14 -50 -29 -50 -34 0 -13 -37 -20 -48 -9 -13 13 -62 -11 -62
-31 0 -13 -2 -13 -9 -2 -7 10 -13 11 -27 2 -17 -9 -17 -10 -1 -11 9 0 17 -4
17 -9 0 -14 -40 -19 -99 -12 -49 5 -53 7 -37 21 16 13 60 27 190 61 21 5 54
18 75 29 l36 19 -320 0 c-210 1 -315 -3 -305 -9 8 -5 23 -10 33 -10 9 0 17 -5
17 -11 0 -7 -7 -8 -17 -4 -10 3 -30 9 -45 12 -16 3 -28 9 -28 14 0 14 -154 11
-169 -3 -11 -10 -13 -10 -7 0 5 8 0 12 -15 12 -21 0 -22 -1 -4 -20 10 -11 22
-20 28 -20 18 0 126 -73 121 -81 -6 -10 -19 -5 -45 18 -13 11 -28 12 -67 5
-28 -5 -57 -5 -64 -1 -13 9 15 13 54 10 34 -4 28 20 -9 35 -21 9 -40 20 -43
24 -27 39 -135 41 -207 3 -41 -21 -55 -25 -65 -15 -9 9 -8 12 7 12 11 1 31 7
45 15 23 13 12 14 -108 15 -104 0 -132 -3 -126 -12 6 -10 4 -10 -7 0 -7 6 -19
12 -27 12 -10 0 -8 -5 6 -17 11 -10 23 -29 27 -43 l7 -25 -26 28 c-15 15 -37
27 -49 27 -12 0 -31 7 -41 15 -17 13 -177 15 -1190 15 l-1171 0 0 -200 c0
-151 3 -201 13 -205 6 -2 12 -13 12 -24 0 -21 -46 -56 -55 -41 -3 5 -12 7 -19
4 -8 -3 -16 4 -19 18 -6 21 -7 22 -20 5 -12 -17 -13 -17 -12 7 0 14 8 31 19
39 18 13 18 16 3 63 -20 65 -29 116 -18 110 14 -9 23 25 10 40 -6 8 -9 29 -7
48 3 24 0 32 -9 29 -14 -5 -19 13 -5 19 5 2 6 22 4 46 l-4 42 -654 0 -654 0 0
-39 c0 -22 -5 -41 -10 -43 -7 -2 -6 -15 2 -36 9 -24 10 -37 1 -51 -6 -10 -8
-23 -4 -30 4 -6 9 -60 10 -120 l2 -109 -33 -6 c-51 -10 -78 -13 -148 -20 -95
-10 -154 -18 -161 -22 -7 -4 -108 32 -118 41 -3 4 4 14 16 23 19 14 22 27 23
87 1 39 1 94 2 123 0 29 -2 55 -4 58 -3 2 -2 19 1 36 3 17 5 48 3 69 l-4 39
-78 0 -78 0 -6 -37 c-4 -21 -2 -119 3 -218 6 -113 6 -184 0 -190 -13 -13 -100
-20 -214 -17 -16 0 -43 0 -60 0 -71 -1 -95 5 -95 23 0 9 5 19 11 21 17 6 20
59 6 77 -9 11 -9 15 0 18 6 2 9 16 7 33 -3 15 0 31 6 35 8 5 8 11 -1 21 -6 8
-8 21 -4 31 4 10 8 60 9 111 l2 92 -563 0 -563 0 0 -3000z m6280 2690 c0 -5
14 -10 32 -10 l32 0 -22 -20 c-12 -12 -22 -25 -22 -30 0 -17 18 -20 30 -5 7 8
16 15 21 15 16 0 10 -38 -8 -56 -10 -9 -18 -22 -18 -28 0 -18 -35 -76 -45 -76
-14 0 -21 18 -10 25 5 3 10 13 10 22 0 13 -12 14 -77 10 -43 -2 -89 -7 -103
-11 -23 -5 -22 -5 3 6 44 19 31 26 -38 20 -49 -3 -65 -2 -65 8 0 10 25 11 116
6 78 -5 120 -3 129 4 9 8 14 6 19 -5 3 -9 10 -13 16 -10 17 11 11 63 -10 82
-13 13 -17 26 -13 41 5 22 23 31 23 12z m218 -43 c9 -11 21 -16 33 -12 24 8
25 -13 2 -23 -26 -10 -26 -28 -2 -86 l21 -52 -21 -37 c-12 -21 -21 -51 -21
-67 0 -36 -41 -98 -81 -124 -49 -30 -134 -18 -244 35 -49 24 -83 45 -74 47 16
3 93 -30 159 -68 40 -23 65 -25 99 -6 14 8 30 12 37 9 7 -2 15 1 19 7 4 7 1
10 -6 8 -8 -1 -16 2 -19 7 -3 6 9 11 25 13 37 4 55 26 55 67 l0 32 -52 -3 -53
-3 46 7 c52 8 80 27 73 47 -3 7 -9 35 -14 61 l-8 49 -1 -44 -1 -45 -22 24
c-13 14 -31 42 -40 63 -16 35 -16 40 -2 54 17 17 17 17 33 -14 12 -23 41 -32
41 -12 0 6 -13 21 -30 35 -16 14 -27 30 -24 37 7 19 57 15 72 -6z m782 -16 c0
-6 12 -6 30 1 17 5 37 7 46 4 30 -12 96 -192 70 -193 -6 0 -18 -4 -27 -7 -20
-9 -52 48 -43 76 4 15 0 17 -23 14 -15 -2 -20 -1 -10 1 9 2 17 10 17 18 0 7 6
15 13 18 6 2 9 8 5 11 -3 4 -22 0 -41 -9 -33 -15 -37 -15 -61 0 -14 10 -26 23
-26 30 0 7 -3 20 -6 29 -5 13 1 16 25 16 17 0 31 -4 31 -9z m-2990 -42 c42
-22 42 -24 16 -74 -15 -26 -26 -54 -26 -62 0 -14 -39 -33 -70 -33 -12 0 -21
10 -25 30 -9 40 -25 38 -25 -2 -1 -29 -2 -31 -11 -14 -8 13 -8 25 0 43 15 32
14 43 -3 43 -10 0 -16 -13 -18 -42 -3 -36 -7 -43 -30 -49 -16 -4 -30 -4 -33 0
-2 5 -27 6 -56 3 -46 -4 -53 -2 -74 21 -12 15 -25 23 -29 19 -4 -4 -14 2 -22
13 -12 16 -18 17 -33 8 -15 -10 -22 -9 -31 2 -9 11 -16 12 -31 2 -14 -8 -22
-9 -27 -1 -4 5 -16 11 -27 12 -11 1 -42 5 -69 8 -35 5 -51 3 -57 -7 -7 -12 -9
-12 -9 0 0 8 -6 11 -15 7 -8 -3 -26 -1 -40 4 -14 5 -25 6 -25 1 0 -5 -8 -7
-19 -4 -13 3 -17 11 -14 24 4 15 14 19 49 19 24 0 44 5 44 10 0 14 37 12 43
-2 4 -10 7 -10 14 -1 6 9 60 14 173 18 90 3 166 8 169 10 7 8 296 2 311 -6z
m2715 -150 c33 -6 67 -13 75 -17 8 -3 40 -13 70 -21 53 -16 55 -15 77 5 26 24
63 37 63 23 0 -5 -11 -16 -25 -25 -39 -26 -30 -39 37 -53 39 -8 76 -23 98 -41
20 -16 51 -33 70 -38 26 -8 29 -10 13 -11 -13 -1 -23 -3 -23 -6 0 -11 26 -61
37 -70 6 -5 13 -18 15 -27 3 -17 18 -14 91 17 9 4 17 3 17 -2 0 -5 -19 -17
-42 -27 -24 -9 -51 -21 -60 -27 -10 -5 -37 -9 -60 -8 -43 0 -39 6 14 23 16 5
16 8 4 38 -8 18 -19 34 -25 36 -6 2 -11 10 -11 18 0 8 -7 14 -16 14 -8 0 -12
5 -9 10 3 6 -1 10 -9 10 -9 0 -16 -5 -16 -11 0 -5 -5 -7 -12 -3 -30 19 -118
-12 -103 -36 3 -5 -4 -6 -15 -3 -11 3 -20 8 -20 12 1 8 68 51 81 51 16 0 10
19 -10 30 -24 12 -41 13 -21 0 31 -19 0 -20 -37 -1 -49 26 -73 46 -73 58 0 6
-10 8 -23 6 -13 -3 -56 7 -97 22 -41 15 -97 33 -123 41 -28 9 -45 19 -41 25 3
6 16 8 28 5 11 -4 48 -11 81 -17z m-5617 -105 c31 -9 60 -19 64 -23 4 -3 -7
-33 -24 -66 -29 -57 -44 -137 -30 -159 4 -6 8 -26 9 -44 1 -19 8 -44 16 -55
34 -52 42 -245 40 -877 -1 -517 -4 -595 -21 -612 -12 -12 -46 -3 -38 10 5 9
-19 24 -56 36 -10 3 -18 15 -18 28 0 13 -7 34 -15 48 -8 14 -19 35 -24 48 -7
14 -19 22 -33 21 -22 0 -22 -1 -3 -9 18 -7 18 -8 3 -15 -16 -6 -17 -23 -15
-166 1 -87 5 -159 10 -159 4 0 5 -11 1 -25 -4 -14 -7 -44 -8 -65 -1 -28 -5
-40 -16 -40 -12 0 -12 -2 -2 -8 7 -5 10 -16 6 -25 -3 -10 -1 -17 5 -17 7 0 9
-15 5 -44 l-7 -45 41 -10 c22 -6 63 -12 91 -12 28 -1 48 -5 46 -10 -3 -4 -1
-10 5 -14 5 -3 10 0 10 7 1 7 12 0 25 -17 25 -30 31 -46 18 -44 -20 3 -26 -2
-13 -11 13 -9 13 -12 -2 -24 -10 -7 -15 -16 -11 -20 4 -4 0 -4 -9 -1 -23 9
-34 -16 -14 -31 16 -12 16 -12 -1 -16 -14 -3 -12 -7 14 -21 17 -9 39 -14 47
-11 9 4 23 1 31 -6 10 -9 15 -9 15 -1 0 6 4 11 9 11 5 0 7 -10 4 -22 -5 -19
-3 -21 8 -10 18 17 32 15 25 -3 -4 -10 1 -15 14 -15 11 0 20 -7 20 -15 0 -8 3
-15 8 -15 4 0 21 -12 38 -27 39 -36 91 -73 100 -73 16 0 104 -44 104 -52 0 -4
5 -8 11 -8 6 0 29 -13 52 -29 23 -16 61 -32 83 -36 23 -3 51 -15 62 -26 12
-10 24 -19 27 -19 13 0 31 -26 32 -45 5 -59 17 -115 26 -115 5 0 5 -6 -2 -14
-9 -11 -9 -15 1 -19 7 -2 10 -7 7 -11 -6 -7 -70 22 -80 36 -3 5 -14 5 -24 2
-18 -7 -18 -8 1 -15 17 -7 17 -8 2 -8 -18 -1 -23 -12 -12 -24 4 -4 8 -25 11
-49 2 -23 9 -46 16 -50 8 -5 6 -8 -8 -8 -18 -1 -18 -2 3 -10 12 -5 22 -16 22
-23 0 -18 28 -75 52 -106 10 -13 15 -27 12 -32 -3 -5 2 -19 10 -31 12 -17 13
-25 4 -36 -8 -10 -9 -15 -1 -20 6 -4 14 -30 16 -57 3 -28 6 -51 6 -52 1 -2 10
-3 21 -3 13 0 20 -7 20 -20 0 -12 7 -20 18 -21 10 0 12 -3 4 -6 -19 -7 -14
-23 7 -23 23 0 40 -22 23 -28 -17 -5 -15 -28 5 -47 16 -16 16 -18 0 -27 -13
-7 -17 -23 -17 -68 0 -33 4 -60 10 -60 6 0 10 -7 10 -15 0 -16 -16 -21 -22 -6
-2 6 -22 6 -53 0 -33 -6 -51 -6 -53 1 -2 6 -7 8 -11 5 -4 -2 -24 -5 -44 -7
-31 -2 -37 -6 -37 -25 0 -31 -31 -30 -95 2 -29 15 -51 21 -53 15 -2 -5 -7 -10
-12 -10 -9 0 -73 54 -99 83 -8 9 -26 17 -38 17 -15 0 -23 6 -23 16 0 14 -3 14
-15 4 -10 -9 -15 -9 -15 -1 0 16 -42 61 -57 61 -19 0 -16 18 5 23 9 2 -1 7
-24 12 -30 5 -46 14 -55 32 -7 14 -30 32 -50 40 -21 8 -40 21 -43 29 -3 8 -12
14 -21 14 -8 0 -15 7 -15 15 0 7 -8 19 -17 24 -10 6 -14 11 -8 11 5 0 -1 7
-13 16 -12 8 -22 21 -22 28 0 21 -43 53 -80 60 -19 3 -52 9 -72 12 -21 4 -38
10 -38 15 0 5 -6 6 -14 3 -20 -8 -56 31 -56 60 0 14 7 31 15 40 14 14 88 27
145 27 63 -1 86 8 60 24 -5 3 -10 11 -10 16 0 6 4 8 8 5 5 -3 9 1 9 7 0 7 -15
24 -33 37 -18 14 -40 42 -50 62 -9 20 -23 39 -30 42 -8 3 -11 12 -8 21 8 19
59 12 85 -11 18 -16 55 -18 64 -4 12 19 -5 69 -21 63 -9 -3 -14 1 -14 12 0 9
-6 22 -13 28 -22 21 -74 47 -81 40 -3 -3 -6 2 -6 12 0 10 -3 15 -7 12 -3 -4
-13 -1 -21 6 -12 10 -16 9 -20 -1 -3 -10 -8 -8 -18 5 -8 10 -14 14 -13 8 5
-36 -16 -39 -91 -15 -14 4 -44 13 -67 20 -41 13 -63 45 -47 71 13 21 74 39
129 38 45 -1 59 2 74 20 10 11 30 21 44 21 35 0 153 -54 160 -74 4 -9 18 -16
32 -16 14 0 25 -4 25 -10 0 -5 -5 -10 -11 -10 -5 0 -7 -4 -4 -10 3 -5 15 -10
26 -10 11 0 22 -6 25 -14 3 -8 15 -16 26 -19 13 -4 19 -11 15 -21 -4 -9 1 -17
11 -21 23 -8 64 -73 51 -81 -16 -10 18 -29 53 -29 25 0 35 7 49 33 10 17 17
32 14 32 -2 0 1 13 6 29 11 32 -4 77 -21 66 -5 -3 -12 6 -16 20 -4 15 -21 34
-45 47 -21 12 -39 25 -39 30 0 4 -7 8 -15 8 -9 0 -25 15 -35 33 -11 19 -31 39
-45 45 -14 6 -25 16 -25 22 0 5 -6 10 -13 10 -29 0 -77 33 -98 66 -20 33 -24
35 -62 30 -22 -3 -46 -11 -53 -17 -8 -6 -21 -9 -29 -5 -8 3 -15 1 -15 -4 0 -6
-9 -10 -21 -10 -14 0 -19 -5 -16 -15 8 -20 -8 -28 -23 -10 -7 8 -17 12 -22 9
-6 -4 -14 0 -19 7 -8 12 -10 12 -18 0 -10 -15 -35 -5 -26 10 4 5 -2 9 -12 9
-27 0 -68 24 -68 39 0 16 -33 41 -48 35 -7 -2 -18 0 -26 5 -12 8 -11 12 3 27
14 13 20 14 26 5 6 -10 9 -10 15 -1 10 16 94 51 106 44 5 -3 9 2 9 10 0 9 5
16 11 16 6 0 9 9 6 19 -3 12 7 33 26 56 l30 37 -2 151 c-4 288 -4 495 -1 733
2 115 4 131 19 129 9 -1 10 0 4 2 -7 3 -13 11 -13 18 0 7 -3 22 -7 32 -6 15
-4 16 9 6 12 -11 18 -9 34 9 19 21 19 21 -1 16 -11 -3 -26 1 -33 8 -18 19 -15
24 14 24 14 0 23 4 19 10 -3 6 -16 10 -28 10 -22 1 -22 1 -2 16 17 12 18 17 7
35 -11 18 -10 29 10 77 27 66 52 99 63 82 4 -6 4 -22 1 -36 -4 -13 -3 -24 1
-24 5 0 9 -48 9 -108 1 -59 5 -106 10 -105 5 2 10 67 11 145 5 431 13 696 21
718 8 24 8 45 2 210 -1 41 -2 83 -1 92 1 23 31 50 48 44 7 -3 39 -13 71 -22z
m423 6 c30 -6 77 -13 104 -16 62 -6 85 -13 85 -25 0 -5 -9 -9 -21 -9 -11 0
-17 -4 -14 -10 4 -6 -6 -10 -22 -10 -25 -1 -26 -2 -9 -11 15 -9 16 -13 5 -20
-12 -8 -12 -11 1 -19 11 -7 12 -10 2 -10 -19 0 -45 28 -37 40 3 5 1 10 -4 10
-14 0 -14 -37 0 -45 7 -5 4 -14 -7 -26 -16 -18 -16 -19 4 -19 28 0 29 -26 2
-35 -26 -8 -25 -22 1 -30 14 -5 25 -2 30 6 6 10 9 8 9 -9 0 -13 -4 -20 -10
-17 -5 3 -10 4 -10 1 0 -2 -3 -12 -7 -22 -5 -13 -3 -16 10 -11 9 3 18 3 21 -1
4 -8 -26 -39 -34 -34 -2 2 -6 -1 -8 -7 -2 -6 10 -11 27 -11 35 0 53 -26 30
-41 -11 -8 -9 -9 7 -7 28 4 54 -19 54 -48 0 -13 6 -24 13 -24 11 0 14 -31 12
-155 -1 -104 2 -155 9 -155 6 0 5 -4 -3 -9 -10 -6 -10 -10 -1 -16 6 -4 9 -18
5 -33 -5 -24 -9 -189 -5 -202 6 -22 6 -150 -1 -169 -6 -14 -6 -28 0 -35 8 -10
8 -35 1 -56 -6 -15 -4 -36 4 -47 4 -7 5 -41 2 -75 -4 -35 -7 -89 -7 -120 -1
-32 -5 -58 -9 -58 -15 0 -16 -79 -2 -85 11 -4 11 -9 3 -18 -14 -18 -13 -207 2
-207 8 0 8 -3 1 -10 -14 -14 5 -122 23 -133 7 -4 13 -19 13 -32 0 -13 5 -27
11 -31 8 -4 7 -9 -2 -15 -12 -7 -12 -9 0 -9 8 0 11 -7 8 -20 -3 -13 0 -20 10
-20 10 0 13 -6 9 -15 -3 -9 0 -18 8 -21 8 -3 11 -15 8 -30 -3 -20 0 -26 17
-31 11 -3 21 -13 20 -22 0 -10 -2 -11 -6 -3 -2 6 -9 9 -15 6 -6 -4 -21 6 -34
21 -13 16 -27 25 -31 22 -3 -4 -16 -1 -27 6 -12 8 -33 17 -48 21 -20 4 -26 11
-21 22 5 13 2 15 -15 9 -23 -7 -31 10 -9 18 6 3 -1 6 -18 7 -16 1 -24 4 -17 7
10 4 10 8 1 19 -6 8 -15 11 -20 8 -5 -3 -12 2 -15 10 -3 9 -11 16 -16 16 -13
0 -53 32 -57 45 -5 13 -45 49 -60 53 -7 1 -23 14 -35 27 -24 26 -96 49 -82 27
4 -7 1 -12 -8 -12 -9 0 -16 5 -16 10 0 6 -8 10 -17 8 -12 -2 -16 2 -13 12 3 8
6 116 7 240 1 124 4 233 7 243 2 9 1 15 -3 13 -4 -3 -7 76 -7 174 1 98 4 176
8 173 5 -2 3 8 -3 24 -7 18 -8 60 -3 118 4 50 8 122 9 161 1 39 5 76 9 82 4 7
2 12 -5 12 -9 0 -9 3 0 14 9 11 9 15 -1 19 -10 4 -10 8 2 16 8 6 10 11 4 11
-6 0 -11 11 -11 25 0 14 4 25 9 25 6 0 6 6 -1 14 -6 7 -9 20 -6 28 3 7 7 29 9
48 9 76 17 114 27 126 5 7 12 56 15 110 3 54 8 102 10 106 3 4 0 8 -5 8 -6 0
-11 7 -11 15 0 9 6 12 15 9 8 -4 15 -2 15 3 0 16 -22 32 -36 26 -10 -4 -14 4
-14 26 0 17 5 31 11 31 6 0 22 9 36 20 29 23 57 25 134 10z m4760 -145 c1 -5
2 -22 3 -37 2 -32 12 -43 46 -53 14 -3 20 -3 14 2 -6 4 -13 16 -17 26 -5 12
-1 17 12 17 15 0 24 -16 40 -72 27 -90 43 -127 37 -83 -2 17 -7 48 -11 70 -12
63 9 30 29 -47 10 -37 27 -77 37 -89 10 -12 20 -26 20 -31 7 -44 34 -80 92
-118 33 -22 66 -40 73 -40 8 0 14 -4 14 -9 0 -16 -61 10 -120 51 -63 43 -75
47 -60 19 5 -11 12 -51 14 -88 3 -37 7 -77 11 -88 6 -17 5 -17 -5 -5 -9 12
-10 10 -4 -10 8 -30 9 -106 0 -140 -3 -13 -1 -40 4 -60 5 -19 12 -66 15 -105
7 -79 27 -131 54 -140 24 -7 35 -49 21 -75 -18 -33 -29 -23 -18 16 6 24 6 40
0 46 -19 19 -32 -3 -30 -49 1 -43 2 -45 28 -40 25 5 26 3 25 -26 -1 -18 -6
-45 -10 -61 -7 -25 -5 -28 8 -23 10 4 22 -2 31 -15 8 -11 19 -17 24 -14 6 3 9
-2 7 -11 -2 -10 -4 -20 -4 -23 -1 -3 -5 0 -9 6 -5 8 -13 4 -25 -12 -10 -13
-14 -24 -9 -24 6 0 13 7 16 16 3 8 10 13 15 10 20 -13 -23 -89 -73 -128 l-50
-40 -2 -106 c-5 -198 -14 -317 -28 -369 -19 -72 -95 -222 -130 -258 -16 -16
-24 -23 -18 -14 7 9 9 19 5 22 -8 9 -32 -24 -33 -44 0 -8 -11 -26 -24 -38 -13
-12 -32 -39 -42 -59 -11 -20 -42 -64 -70 -97 -27 -33 -76 -90 -106 -127 -48
-56 -59 -64 -69 -52 -9 11 -9 20 0 40 6 15 9 34 6 44 -7 23 11 70 27 70 9 0 8
-3 -2 -10 -13 -8 -13 -10 1 -10 18 0 42 25 53 55 6 16 9 17 16 5 8 -13 10 -12
10 2 0 10 17 27 39 40 27 16 37 27 33 40 -2 10 1 18 7 18 6 0 11 7 11 15 0 8
4 15 9 15 5 0 12 13 16 29 3 16 13 32 20 35 9 3 12 12 8 22 -4 12 -3 15 5 10
7 -4 12 -2 12 3 0 6 5 11 10 11 17 0 60 51 60 72 0 28 31 70 47 64 10 -4 12 1
7 19 -5 19 -2 25 10 25 9 0 16 7 16 15 0 18 -17 20 -23 3 -2 -7 -8 -10 -12 -5
-5 4 1 31 13 60 11 28 25 70 31 92 10 36 8 42 -16 67 -15 15 -33 28 -40 28 -7
0 -13 4 -13 8 0 4 -9 8 -20 9 -22 2 -28 -22 -7 -30 7 -3 5 -6 -5 -6 -24 -1
-23 -37 2 -86 22 -43 25 -65 10 -65 -5 0 -7 -7 -4 -15 4 -9 0 -15 -10 -15 -9
0 -16 -7 -16 -16 0 -11 6 -14 20 -9 25 8 26 -10 4 -54 -16 -33 -34 -33 -34 0
0 12 -7 19 -20 19 -11 0 -20 5 -20 11 0 6 -10 9 -22 7 -19 -2 -24 -11 -28 -49
-3 -26 -12 -54 -19 -63 -16 -19 -81 -22 -82 -3 0 9 -2 9 -6 -1 -3 -9 -13 -6
-36 10 -21 15 -32 18 -35 10 -4 -13 -58 -17 -64 -4 -1 4 -20 18 -41 31 -26 16
-35 26 -27 31 7 4 9 13 5 20 -5 8 -10 9 -18 1 -7 -7 -14 -7 -24 0 -7 6 -20 8
-29 5 -13 -5 -14 -9 -4 -21 7 -8 18 -15 24 -15 7 0 23 -11 36 -25 13 -14 27
-25 32 -25 5 0 14 -5 21 -10 7 -6 33 -24 60 -41 26 -17 47 -37 47 -44 0 -7 7
-15 15 -19 8 -3 15 -14 15 -24 0 -24 -25 -46 -41 -37 -6 4 -31 7 -55 7 -24 -1
-44 3 -44 8 0 10 -97 5 -162 -9 -27 -6 -55 -8 -63 -5 -10 4 -15 0 -15 -11 0
-10 -5 -15 -13 -12 -7 3 -21 -1 -31 -9 -11 -7 -22 -11 -26 -9 -16 10 -28 -20
-14 -33 8 -7 14 -10 14 -6 0 3 7 1 15 -6 29 -24 15 -30 -65 -29 -70 1 -80 3
-80 19 0 10 7 21 16 24 13 5 14 9 5 20 -10 11 -8 16 6 20 10 3 28 24 41 47 13
22 30 43 38 46 8 3 14 11 14 18 0 7 3 15 8 17 8 4 42 74 42 89 0 6 -4 8 -9 5
-5 -3 -26 -8 -47 -12 -22 -3 -53 -17 -71 -30 -33 -25 -87 -32 -98 -13 -4 6
-13 8 -21 5 -7 -3 -16 -1 -20 5 -3 6 -13 8 -22 4 -9 -3 -13 -3 -9 1 4 4 -3 18
-15 31 -18 19 -20 26 -9 32 7 5 11 19 10 32 -2 13 0 30 5 37 5 9 2 15 -12 19
-13 3 -20 14 -21 31 -3 73 -1 96 9 102 8 5 9 10 2 14 -7 4 -7 17 -2 37 13 43
19 47 37 24 16 -20 16 -20 8 0 -4 11 -10 31 -13 45 -3 14 -12 30 -21 37 -9 6
-12 15 -8 19 4 5 19 -4 33 -20 14 -15 29 -24 33 -20 3 4 0 9 -6 11 -7 3 -13
11 -13 19 0 8 -12 19 -27 25 -19 7 -23 13 -15 21 6 6 8 16 6 23 -3 7 7 15 25
18 28 6 45 27 22 27 -5 0 -11 6 -14 14 -4 11 0 12 21 6 15 -4 26 -12 25 -17
-1 -6 9 -10 23 -10 25 0 84 -52 84 -75 0 -6 -7 -20 -17 -30 -23 -25 2 -23 28
3 11 11 27 18 35 15 18 -7 37 29 29 54 -9 28 3 44 21 29 10 -8 11 -16 3 -31
-12 -22 -49 -161 -45 -166 2 -1 10 12 19 29 14 30 15 30 22 10 4 -12 2 -27 -3
-34 -8 -9 -3 -12 19 -13 16 -1 26 3 22 9 -3 5 0 7 8 5 8 -3 13 -17 12 -34 -2
-29 -2 -29 15 -8 18 22 41 21 55 -3 5 -7 12 -11 17 -8 5 3 11 1 14 -4 4 -5 16
-4 31 2 28 14 33 27 9 27 -22 0 -48 27 -31 33 6 3 3 6 -9 6 -15 1 -20 7 -20
24 1 30 13 37 68 37 38 0 46 -3 42 -15 -8 -19 6 -19 31 -1 18 13 17 14 -13 21
-18 3 -32 11 -32 16 0 11 14 12 23 2 4 -3 17 -8 30 -9 12 -1 41 -5 63 -9 27
-5 44 -3 48 4 4 6 1 11 -8 11 -14 0 -29 27 -25 46 4 22 -3 32 -23 39 l-23 8
23 4 c12 2 20 9 17 14 -4 5 5 9 19 9 14 0 28 5 31 10 13 21 85 60 112 61 l28
1 -27 11 c-16 6 -28 13 -28 16 0 8 51 31 66 31 7 0 17 7 22 17 5 9 20 17 33
18 15 1 24 8 24 18 0 9 22 37 49 62 47 43 48 45 23 45 -15 0 -27 5 -27 10 0 6
-7 10 -15 10 -7 0 -18 8 -24 18 -9 16 -10 16 -17 -1 -4 -10 -10 -15 -13 -10
-3 5 -19 14 -34 21 -19 8 -27 18 -23 27 3 10 -1 15 -12 16 -58 4 -87 11 -102
24 -16 14 -18 14 -24 0 -4 -10 -13 -14 -24 -11 -10 3 -49 8 -87 11 -39 3 -77
8 -85 10 -9 3 -22 -7 -32 -25 -15 -27 -22 -30 -68 -30 -36 0 -52 -4 -56 -15
-4 -10 -13 -13 -24 -10 -10 3 -21 1 -25 -5 -10 -16 -20 -12 -49 17 -14 14 -29
23 -33 20 -3 -4 -12 -2 -19 4 -9 7 -14 6 -20 -2 -4 -7 -2 -15 4 -17 7 -2 9 -9
5 -15 -4 -6 -6 -26 -5 -45 2 -18 -1 -32 -5 -29 -4 2 -25 11 -45 21 -42 19 -49
27 -17 19 21 -6 21 -3 -8 46 -2 2 -12 -4 -23 -14 -19 -17 -21 -17 -42 1 -19
15 -20 16 -9 2 12 -15 10 -24 -3 -15 -2 1 -12 -5 -22 -15 -18 -15 -20 -15 -37
8 -10 13 -13 24 -7 24 15 0 12 16 -7 35 -13 14 -14 18 -3 25 11 7 11 12 2 23
-10 12 -8 16 10 21 22 7 22 7 3 16 -31 13 -35 12 -32 -12 2 -12 -4 -31 -15
-42 -10 -11 -18 -29 -18 -39 0 -19 -1 -20 -20 -2 -11 10 -20 14 -20 10 0 -5
-7 0 -15 11 -13 17 -14 17 -15 2 0 -22 -20 -24 -20 -3 0 8 -4 15 -10 15 -5 0
-10 -4 -10 -10 0 -5 -4 -10 -10 -10 -5 0 -7 7 -4 15 4 8 1 15 -4 15 -11 0 -35
37 -48 73 -3 9 -10 17 -14 17 -5 0 -12 15 -16 32 -3 18 -14 38 -23 45 -13 10
-6 12 42 9 52 -4 95 -16 54 -16 -10 0 -17 -8 -17 -20 0 -13 5 -18 15 -14 8 4
15 11 15 18 1 6 6 5 13 -4 14 -17 57 -25 57 -10 0 18 16 11 56 -25 28 -25 48
-35 72 -35 20 0 31 4 27 10 -3 6 -1 10 6 10 7 0 2 8 -9 19 -25 21 -28 37 -9
44 6 3 1 6 -11 6 -15 1 -26 9 -29 22 -4 15 -8 17 -14 8 -4 -8 -3 -20 4 -28 10
-12 9 -12 -10 -1 -17 11 -19 18 -12 32 6 10 7 23 4 28 -3 5 4 19 17 32 14 14
23 17 26 10 5 -16 23 -16 19 0 -3 16 151 39 156 24 2 -7 10 -6 20 3 11 9 30
12 52 8 23 -4 33 -2 29 4 -4 7 7 10 27 9 58 -3 66 -1 44 13 -22 13 -225 17
-225 5 0 -5 -7 -8 -15 -8 -8 0 -15 4 -15 9 0 5 -16 12 -35 15 -19 4 -35 12
-35 18 0 6 -8 17 -17 24 -11 8 -13 13 -6 14 7 0 21 10 32 22 15 16 18 25 10
34 -6 7 -8 18 -4 24 3 5 1 10 -4 10 -6 0 -11 5 -11 11 0 5 8 9 18 8 32 -3 36
1 16 17 -18 15 -18 15 9 9 26 -5 33 4 28 37 0 4 6 5 15 1 14 -5 15 -3 5 15
-15 27 -14 32 5 32 9 0 14 6 11 13 -2 6 4 19 13 27 9 8 20 28 24 44 4 15 15
30 26 33 12 3 17 11 13 21 -4 13 -3 14 5 4 5 -8 23 -12 43 -10 29 2 34 7 37
31 3 21 9 27 28 27 13 0 24 3 24 8 0 4 8 12 18 18 13 8 24 6 47 -9 l30 -19
-35 6 c-31 6 -33 5 -15 -8 11 -7 25 -12 32 -9 7 3 13 -2 13 -11 0 -9 7 -16 16
-16 11 0 14 6 9 20 -7 23 -2 25 26 9 12 -6 18 -17 15 -25 -4 -11 -1 -14 12
-10 9 3 24 1 32 -4 11 -7 11 -10 2 -10 -10 0 -10 -3 0 -14 7 -7 18 -11 25 -9
6 3 21 -1 34 -7 20 -11 21 -10 16 9 -3 11 -1 21 4 21 5 0 9 5 9 10 0 6 -11 8
-26 4 -19 -5 -25 -4 -20 5 4 6 18 11 32 11 14 0 24 6 24 14 0 14 36 32 53 28
5 -1 5 2 2 9 -4 6 -17 8 -29 5 -23 -5 -69 23 -49 31 7 2 9 11 6 18 -3 9 6 19
23 27 22 10 28 10 32 0 2 -6 8 -12 14 -12 6 0 7 7 4 16 -3 8 -2 12 4 9 15 -9
12 11 -4 24 -11 9 -16 9 -21 0 -6 -8 -10 -7 -17 5 -5 9 -15 16 -23 16 -8 0
-17 5 -20 11 -5 7 5 8 30 3 22 -4 40 -3 44 3 6 11 121 74 121 68 0 -13 -54
-55 -70 -55 -12 0 -20 -7 -20 -16 0 -54 134 59 163 138 7 19 56 22 58 3z
m1217 -124 c3 -26 7 -31 23 -26 14 5 19 1 20 -12 1 -29 6 -64 18 -128 6 -33
11 -107 10 -165 0 -58 1 -136 2 -175 4 -96 3 -1536 -1 -1769 -3 -180 -4 -191
-25 -210 -27 -25 -77 -132 -95 -201 -16 -61 -14 -59 -38 -44 -16 10 -18 18
-12 40 9 30 6 106 -4 116 -10 10 -7 25 4 18 12 -7 9 37 -3 46 -5 3 -4 23 2 43
10 39 5 70 -10 60 -5 -3 -9 0 -9 5 0 6 5 11 10 11 6 0 10 20 10 45 0 33 -5 47
-16 52 -14 5 -14 7 -1 14 12 7 15 40 14 197 0 104 3 193 6 199 4 7 3 15 -3 18
-8 5 -8 11 0 20 6 8 7 16 2 19 -5 3 -7 58 -5 123 3 88 1 114 -7 103 -9 -12
-10 -10 -4 10 9 29 9 178 1 186 -3 4 -2 16 3 28 4 12 6 109 5 215 -3 147 -7
196 -17 202 -16 11 -77 8 -84 -3 -9 -14 -54 -9 -54 6 0 9 18 15 54 20 30 3 66
10 81 16 23 9 25 14 21 55 -2 27 0 45 6 45 7 0 8 17 3 48 -4 26 -7 73 -7 105
1 32 -3 69 -8 82 -6 15 -6 27 0 30 7 4 6 13 0 26 -9 15 -7 19 7 20 17 1 17 2
0 6 -16 4 -18 12 -14 53 3 26 8 54 12 61 5 8 4 10 -3 5 -13 -8 -17 6 -5 18 13
12 14 95 3 117 -10 17 -9 20 1 14 9 -6 11 -2 7 13 -3 12 -1 24 6 27 8 3 8 7
-1 11 -15 7 -17 51 -3 56 5 2 12 31 14 65 6 76 21 102 55 99 21 -3 27 -9 29
-35z m-4362 -488 c-4 -34 -3 -42 7 -37 7 5 7 2 -2 -9 -11 -14 -11 -23 -3 -40
6 -12 14 -40 17 -62 4 -22 8 -476 10 -1008 1 -532 5 -971 9 -974 11 -11 6 -23
-9 -23 -8 0 -15 -4 -15 -10 0 -5 -7 -7 -15 -4 -8 4 -21 1 -28 -4 -8 -7 -18 -8
-27 -1 -13 8 -13 11 2 19 10 6 14 18 11 30 -3 12 0 20 7 20 7 0 3 9 -10 20
-13 11 -21 22 -19 23 2 2 15 12 29 21 l25 18 -26 -6 c-17 -3 -26 -1 -26 7 -1
6 -4 33 -6 59 -5 38 -2 50 11 58 16 9 16 9 0 10 -25 0 -11 30 16 31 20 2 20 2
-1 6 -24 5 -32 33 -10 33 8 0 8 3 1 8 -10 7 -18 283 -15 557 0 72 0 166 -1
210 -2 121 -1 147 6 180 5 25 4 26 -4 10 -9 -18 -10 -17 -5 5 9 40 12 81 5 85
-3 2 -6 69 -6 149 1 88 -3 148 -9 151 -7 3 -7 7 0 10 7 3 10 69 8 177 -1 107
2 166 8 157 6 -9 6 4 2 35 -5 41 -3 51 12 62 17 13 17 14 2 14 -9 0 -17 5 -17
10 0 6 5 10 11 10 6 0 8 7 5 17 -8 20 9 32 36 25 18 -4 20 -11 14 -49z m5651
-929 c18 -14 33 -33 33 -43 0 -9 5 -22 11 -28 6 -6 9 -26 7 -44 -3 -31 -6 -34
-40 -37 -20 -2 -59 1 -87 6 -34 6 -48 6 -44 -1 4 -6 -4 -7 -20 -3 -15 3 -35 1
-46 -6 -15 -9 -25 -9 -46 0 -23 11 -34 9 -80 -13 -30 -14 -59 -25 -64 -25 -6
0 -11 -6 -11 -14 0 -7 -16 -21 -35 -30 -19 -9 -35 -20 -35 -24 0 -4 -13 -15
-29 -25 -28 -16 -28 -16 -24 8 5 24 106 133 159 170 56 40 168 105 181 105 7
0 13 4 13 9 0 12 25 18 79 20 33 1 52 -5 78 -25z m-673 -482 c3 -5 -5 -24 -18
-43 -27 -38 -142 -149 -156 -149 -20 0 -129 -114 -135 -142 -4 -16 -13 -32
-21 -35 -8 -3 -14 -11 -14 -17 0 -7 -9 -22 -20 -34 -11 -12 -20 -24 -20 -27 0
-11 85 6 95 18 16 22 53 38 60 27 8 -13 45 -13 45 0 0 6 7 10 15 10 8 0 12 -6
9 -13 -2 -7 3 -13 13 -14 10 -1 34 -4 53 -8 61 -10 90 -6 123 17 18 12 34 25
37 29 13 18 99 50 130 48 81 -3 96 1 131 35 34 34 47 40 81 37 23 -1 17 -42
-10 -71 -12 -13 -22 -27 -22 -31 0 -4 -13 -10 -29 -14 -65 -14 -62 -54 8 -105
54 -38 104 -120 104 -169 0 -17 4 -31 8 -31 7 0 -4 -42 -26 -93 -12 -29 -13
-29 -27 -8 -8 11 -17 18 -21 15 -3 -3 -3 3 0 14 2 11 0 23 -6 26 -6 4 -11 15
-11 25 0 10 -8 29 -19 42 -19 24 -21 30 -21 50 0 5 -5 7 -11 3 -7 -4 -20 4
-30 17 -17 23 -19 23 -32 5 -15 -20 -14 -20 -104 34 l-31 19 -40 -37 c-21 -20
-47 -49 -57 -64 -9 -15 -21 -26 -25 -23 -5 3 -11 -4 -15 -15 -16 -51 -39 -5
-26 52 7 28 5 38 -5 42 -8 3 -14 1 -14 -4 0 -6 -9 -6 -24 0 -18 6 -28 5 -36
-5 -6 -7 -20 -11 -30 -8 -14 4 -20 0 -20 -11 0 -9 -7 -16 -15 -16 -8 0 -15 9
-15 20 0 14 -7 20 -23 20 -48 0 -51 28 -9 82 11 14 11 18 -4 26 -14 8 -28 5
-56 -9 -21 -11 -38 -16 -38 -12 0 4 -6 -1 -13 -12 -15 -20 -77 -31 -77 -14 0
6 -7 8 -16 5 -11 -4 -22 1 -32 15 -11 17 -16 18 -23 8 -5 -8 -9 -21 -9 -29 0
-13 1 -13 10 0 6 9 10 10 10 3 0 -20 -17 -24 -30 -7 -11 12 -15 12 -21 2 -7
-10 -9 -9 -9 5 0 9 3 17 8 17 4 0 17 22 29 49 19 41 94 149 120 173 4 4 55 53
111 108 73 70 123 109 168 131 36 18 67 36 70 41 7 10 21 10 28 0z m650 -117
c9 -9 21 -33 27 -54 10 -34 9 -41 -11 -63 -24 -29 -53 -27 -82 3 -10 10 -26
15 -37 12 -11 -3 -30 3 -44 13 l-24 18 30 25 c38 32 88 60 109 60 9 1 24 -6
32 -14z m-2384 -325 c0 -5 11 -10 24 -10 41 0 56 -50 56 -185 0 -66 5 -125 11
-137 10 -19 9 -20 -14 -14 -14 3 -33 9 -42 13 -13 4 -16 2 -13 -8 3 -8 17 -16
33 -19 16 -3 30 -11 33 -19 3 -10 0 -12 -12 -8 -49 19 -129 38 -140 34 -22 -8
-36 14 -36 55 0 21 -4 38 -10 38 -5 0 -10 7 -10 15 0 8 -3 15 -8 15 -6 0 -18
27 -39 94 -5 15 -3 18 10 13 20 -8 49 2 42 14 -3 4 -12 6 -20 2 -8 -3 -15 0
-15 6 0 6 7 11 16 11 11 0 14 6 9 20 -4 11 -2 20 4 20 6 0 11 -9 11 -21 0 -11
4 -18 10 -14 5 3 6 13 3 22 -5 14 -1 15 27 10 18 -4 47 -14 63 -22 38 -19 40
-19 32 5 -5 16 -3 19 10 13 15 -5 15 -3 4 15 -7 12 -26 24 -41 28 -16 3 -26
10 -22 15 7 12 24 12 24 -1z m400 -145 c11 -4 20 -12 20 -19 0 -7 8 -24 19
-37 15 -19 30 -79 33 -126 1 -33 46 -60 49 -30 5 52 10 72 23 93 24 36 20 92
-9 130 -49 64 -27 60 67 -12 40 -31 93 -70 117 -88 25 -18 53 -51 67 -79 14
-26 29 -45 34 -42 5 3 7 12 3 20 -3 8 0 15 6 15 6 0 10 -3 10 -7 -1 -5 -1 -18
0 -30 1 -19 5 -21 36 -16 30 5 36 2 45 -21 12 -33 24 -34 18 -1 -6 27 5 41 22
30 8 -5 7 -11 -1 -21 -9 -11 -8 -15 4 -20 13 -5 12 -9 -5 -26 -15 -15 -18 -28
-14 -53 4 -18 4 -40 0 -49 -8 -21 -34 -21 -35 2 0 10 -3 12 -6 5 -6 -17 -23
-16 -62 3 -24 12 -30 19 -22 27 17 17 13 44 -8 59 -10 7 -22 24 -26 38 -4 14
-16 33 -26 43 -11 10 -19 24 -19 31 0 17 -29 42 -60 51 -14 4 -28 13 -32 19
-4 6 -10 7 -15 3 -12 -12 -21 -131 -11 -144 5 -6 10 -36 11 -67 2 -54 12 -74
19 -39 3 16 6 15 26 -5 24 -24 26 -30 12 -52 -7 -12 -13 -12 -32 -1 -13 7 -28
11 -34 10 -39 -7 -76 4 -110 35 -21 19 -35 38 -31 42 4 4 7 3 7 -3 0 -6 9 -9
20 -6 12 3 20 0 20 -7 0 -9 6 -8 18 3 10 10 23 17 29 17 12 0 22 29 16 48 -5
13 -63 17 -63 4 0 -4 -21 -13 -46 -20 -39 -11 -51 -10 -82 5 -77 35 -109 72
-136 153 -3 12 -5 11 -5 -2 -1 -20 -18 -23 -41 -8 -13 9 -13 11 0 20 12 8 13
12 2 19 -10 6 -8 10 10 15 14 4 18 9 11 13 -22 9 -14 25 10 19 12 -3 16 -3 10
0 -29 13 -12 26 24 19 30 -5 35 -4 26 7 -6 7 -7 21 -2 33 6 17 8 17 8 3 1 -10
9 -18 19 -18 10 0 23 -5 30 -12 9 -9 12 -8 12 6 0 10 -9 20 -20 23 -13 4 -20
14 -20 31 l0 25 20 -26 c11 -14 29 -29 40 -32z m-606 -49 c-1 -9 4 -16 12 -16
19 0 68 -68 70 -99 1 -14 2 -34 3 -44 1 -12 5 -16 14 -11 7 5 7 1 -2 -10 -12
-14 -12 -19 -2 -26 9 -5 10 -10 2 -14 -6 -4 -11 -15 -10 -24 0 -12 3 -10 10 6
l9 23 30 -21 30 -21 0 21 c0 11 -8 33 -17 47 -17 26 -17 27 2 19 11 -5 31 -11
45 -14 14 -2 30 -8 35 -12 6 -4 22 -10 36 -13 22 -6 31 -18 49 -69 12 -35 26
-71 31 -80 5 -10 9 -26 10 -35 0 -13 3 -11 10 7 8 19 6 27 -5 36 -20 14 -20
24 -1 24 9 0 18 7 21 15 4 8 10 15 15 15 5 0 9 -7 9 -15 0 -8 7 -15 15 -15 8
0 15 6 15 14 0 9 7 12 20 9 17 -4 19 -2 13 13 -10 29 -35 43 -61 37 -16 -4
-23 -1 -22 8 4 25 0 35 -20 57 -25 27 -8 29 28 4 15 -11 49 -24 76 -31 59 -15
186 -78 193 -97 6 -16 45 -36 123 -62 30 -11 55 -24 55 -30 0 -7 4 -11 10 -9
5 1 9 8 7 15 -2 6 6 12 18 12 17 0 20 -4 15 -20 -9 -28 10 -49 37 -42 14 3 19
1 14 -6 -4 -8 0 -12 11 -12 14 0 18 8 19 36 0 23 7 42 18 49 13 10 14 14 4 18
-11 5 10 9 55 10 19 0 47 -14 47 -25 0 -5 7 -16 15 -24 17 -18 20 -34 5 -34
-5 0 -10 -4 -10 -9 0 -5 9 -7 20 -4 14 4 20 0 20 -11 0 -9 15 -26 34 -37 51
-30 61 -68 33 -127 -12 -26 -29 -52 -37 -59 -10 -7 -15 -26 -15 -51 0 -25 -4
-38 -11 -35 -7 2 -10 -14 -8 -52 2 -32 -1 -55 -7 -55 -6 0 -7 10 -4 23 6 20 6
20 -8 7 -9 -8 -19 -39 -23 -68 -6 -46 -5 -52 10 -46 9 3 16 1 16 -5 0 -6 -4
-11 -10 -11 -5 0 -10 -13 -10 -29 0 -18 -8 -35 -22 -45 -16 -12 -19 -18 -10
-22 14 -6 17 -54 3 -54 -5 0 -13 17 -19 38 -5 20 -10 30 -11 21 -1 -9 -11 -23
-24 -32 -25 -16 -48 -7 -60 25 -4 11 -12 15 -22 12 -10 -4 -15 0 -15 10 0 21
-10 20 -26 -1 -12 -16 -13 -15 -14 12 0 23 -3 27 -10 15 -5 -8 -10 -27 -10
-42 0 -16 -4 -28 -10 -28 -5 0 -10 9 -10 20 0 11 -4 20 -10 20 -5 0 -10 -6
-10 -12 0 -10 -3 -9 -9 1 -7 10 -10 10 -16 1 -4 -7 -1 -16 6 -21 10 -6 11 -9
2 -9 -8 0 -13 -15 -13 -41 0 -28 4 -38 12 -33 8 5 9 2 5 -10 -4 -10 -3 -15 3
-11 6 3 13 -1 16 -10 4 -9 13 -14 20 -11 8 3 14 1 14 -4 0 -6 -4 -10 -9 -10
-5 0 -7 -9 -4 -20 3 -11 0 -20 -6 -20 -22 0 -10 -36 19 -55 17 -11 30 -29 30
-40 -1 -19 -1 -19 -14 -3 -7 10 -20 18 -29 18 -9 0 -23 14 -32 30 -9 17 -20
30 -25 30 -6 0 -10 5 -10 10 0 6 9 10 19 10 13 0 18 6 17 17 -2 10 -11 18 -22
18 -11 0 -20 8 -22 20 -2 11 -11 26 -20 33 -14 11 -14 12 4 12 18 1 18 1 2 11
-10 5 -18 21 -18 34 0 14 -4 25 -8 25 -5 0 -5 28 -1 62 4 35 6 65 3 67 -2 2
-4 -1 -4 -8 0 -7 -5 -9 -11 -5 -6 3 -8 17 -5 30 4 14 1 44 -5 67 -15 55 -19
116 -7 123 5 3 6 19 3 35 -5 24 -3 29 12 30 13 0 11 3 -7 10 -21 8 -26 16 -26
44 0 30 3 35 24 35 18 0 22 4 17 19 -3 11 -1 22 5 26 5 3 10 14 10 23 0 12 -3
13 -8 5 -4 -7 -19 -14 -32 -15 -23 -3 -25 0 -25 47 0 28 -3 55 -6 60 -4 6 -6
25 -4 43 1 18 -3 32 -9 32 -6 0 -12 -12 -13 -28 -1 -15 -11 -56 -23 -92 -11
-35 -23 -97 -27 -137 -3 -40 -9 -73 -13 -73 -4 0 -3 -21 1 -47 12 -76 11 -125
-3 -120 -9 3 -13 28 -13 80 0 68 -3 78 -22 92 -13 9 -23 21 -23 27 0 7 10 1
21 -11 16 -17 24 -20 29 -11 9 15 -8 70 -21 70 -4 0 -6 -7 -2 -16 5 -14 3 -14
-15 2 -12 9 -18 22 -15 27 3 5 9 4 13 -3 12 -19 19 2 15 44 -4 39 -15 63 -15
32 0 -9 -7 -27 -15 -40 -8 -12 -17 -49 -20 -81 -3 -32 -10 -62 -16 -66 -8 -5
-8 -8 0 -13 6 -4 9 -11 6 -16 -6 -9 21 -126 33 -145 3 -5 5 -22 3 -37 -1 -15
1 -33 5 -40 11 -17 8 -98 -4 -110 -13 -13 -70 43 -97 96 -11 21 -25 41 -32 43
-7 3 -13 10 -13 17 0 7 -18 30 -40 51 -22 21 -40 45 -40 52 0 7 -4 13 -9 13
-5 0 -12 8 -15 18 -4 10 -14 27 -24 38 -26 30 -62 82 -62 91 0 4 -14 22 -31
38 -17 17 -38 43 -46 58 -14 28 -14 29 9 22 19 -6 18 -3 -11 22 -19 17 -31 35
-27 42 4 6 3 11 -3 11 -6 0 -8 19 -4 48 3 26 5 57 4 70 0 12 3 22 7 22 11 0 9
34 -3 40 -5 3 -12 -8 -16 -23 -4 -16 -13 -35 -19 -42 -6 -8 -9 -22 -6 -32 4
-12 -1 -23 -15 -31 -18 -12 -23 -10 -43 10 -32 33 -89 78 -101 78 -5 1 -30 19
-55 41 -37 34 -41 40 -20 34 20 -5 22 -4 10 5 -13 9 -12 12 4 25 27 21 41 19
43 -6 2 -22 10 -35 17 -28 10 9 -7 59 -20 59 -8 0 -14 4 -14 9 0 11 30 25 47
22 21 -3 24 18 5 37 -21 21 -13 52 13 52 10 0 15 11 15 31 0 17 4 28 10 24 6
-3 15 6 20 20 11 28 36 29 34 1z m2535 -77 c27 -47 29 -81 12 -161 -12 -54
-18 -61 -48 -57 -5 1 -7 5 -6 10 2 5 -13 15 -32 23 -30 13 -35 19 -31 40 2 14
-1 27 -7 30 -8 3 -7 8 3 15 13 9 13 11 0 11 -9 0 -21 -5 -28 -12 -9 -9 -12 -9
-12 0 0 7 4 12 9 12 5 0 12 14 16 30 4 17 11 30 16 30 5 0 9 8 9 19 0 20 35
50 61 50 8 1 26 -17 38 -40z m-3054 13 c11 -6 40 -16 65 -23 44 -12 46 -14 47
-51 2 -32 -3 -41 -25 -55 -15 -10 -30 -22 -34 -28 -5 -6 -8 -6 -8 2 0 23 -92
-20 -113 -54 -12 -19 -27 -16 -27 7 0 12 -5 17 -14 14 -23 -9 -31 18 -10 33
18 14 17 14 -12 9 -22 -5 -35 -2 -44 9 -10 12 -10 15 0 15 8 0 10 8 7 21 -4
15 0 23 14 26 10 3 19 9 19 14 0 5 7 9 15 9 8 0 15 8 15 17 0 43 57 62 105 35z
m2813 -454 c6 -6 28 -13 49 -15 43 -5 48 -7 38 -23 -5 -8 -11 -8 -19 -1 -7 6
-16 8 -19 4 -4 -3 -7 -1 -7 5 0 7 -5 12 -12 12 -6 0 -8 -3 -5 -7 4 -3 2 -12
-4 -19 -9 -10 -7 -15 5 -20 23 -9 20 -20 -6 -29 -20 -6 -20 -8 -5 -12 9 -2 17
-11 17 -19 0 -8 5 -14 10 -14 6 0 10 -11 10 -25 0 -28 48 -59 75 -49 9 4 15 2
13 -3 -2 -5 24 -31 57 -58 90 -73 176 -171 223 -253 16 -29 15 -31 -7 -25 -33
8 -32 -14 2 -50 64 -70 80 -96 67 -113 -7 -8 -10 -18 -6 -21 4 -4 11 -2 15 5
6 10 11 9 21 -3 11 -14 10 -19 -8 -37 -21 -22 -62 -32 -62 -16 0 4 -4 8 -10 8
-5 0 -7 -7 -3 -16 5 -14 2 -16 -20 -10 -29 7 -30 10 8 -78 15 -36 15 -38 0
-32 -9 3 -21 6 -26 6 -6 0 -7 4 -4 10 10 16 -36 68 -79 91 -22 11 -48 30 -57
40 -14 16 -28 19 -73 17 -31 -2 -56 -6 -56 -10 0 -9 22 -12 63 -9 20 2 27 -2
27 -16 0 -16 53 -73 67 -73 3 0 2 12 -2 28 -7 27 -6 27 13 7 10 -11 17 -26 14
-32 -2 -8 4 -13 15 -13 26 0 42 -18 36 -41 -3 -10 -6 -19 -8 -19 -11 0 -65 34
-65 41 0 18 -28 9 -33 -11 -3 -13 -17 -22 -37 -26 -22 -5 -28 -9 -18 -15 9 -6
4 -9 -16 -9 -25 0 -27 -2 -15 -17 8 -9 13 -18 11 -20 -5 -6 30 -68 43 -75 35
-21 91 -75 88 -85 -2 -6 11 -35 30 -65 38 -60 58 -124 58 -183 -1 -22 2 -85 5
-140 l6 -100 -24 22 c-12 11 -32 23 -43 25 -13 2 -22 14 -26 33 -6 25 -7 26
-8 6 -1 -17 -5 -21 -17 -17 -9 3 -26 6 -39 6 -14 0 -25 7 -28 20 -3 11 -19 25
-36 31 -20 7 -31 18 -31 30 0 10 -4 19 -10 19 -5 0 -10 -7 -10 -16 0 -8 -4
-13 -10 -9 -5 3 -7 11 -5 18 3 7 -8 21 -25 32 -17 11 -33 28 -36 38 -3 9 -13
17 -22 17 -12 0 -17 9 -18 34 0 34 -22 66 -44 66 -7 0 -9 8 -5 20 5 14 2 20
-9 20 -9 0 -16 9 -16 20 0 13 -10 24 -25 30 -14 5 -25 14 -25 19 0 6 -6 8 -14
5 -8 -3 -17 -1 -21 5 -3 6 -16 11 -28 11 -16 0 -18 3 -9 12 20 20 13 32 -8 13
-19 -18 -20 -17 -20 3 0 13 -6 22 -15 22 -8 0 -15 -4 -15 -10 0 -5 -4 -10 -10
-10 -5 0 -7 7 -4 15 4 8 -3 34 -14 58 -26 56 -26 104 -1 118 11 5 17 14 14 20
-4 5 3 9 14 9 16 0 21 6 21 24 0 16 7 27 20 31 22 7 27 25 8 25 -7 0 -4 6 6
12 19 11 19 11 1 24 -17 13 -17 14 -2 14 23 0 21 9 -8 36 -14 13 -25 28 -25
34 0 7 -6 10 -12 7 -7 -2 -13 -14 -13 -26 0 -12 -6 -26 -14 -30 -9 -6 -6 -10
11 -16 21 -7 22 -7 3 -12 -11 -3 -25 -13 -32 -22 -11 -14 -12 -14 -13 0 0 9
-9 24 -19 33 -16 15 -18 22 -9 42 6 13 15 24 20 24 4 0 18 10 29 21 17 17 23
19 30 8 4 -7 12 -10 16 -5 4 5 3 11 -4 13 -15 5 -8 93 12 143 7 19 16 43 19
53 3 11 15 21 25 24 11 3 24 17 29 32 5 14 21 38 35 51 15 14 27 33 27 43 0 9
7 17 15 17 20 0 19 8 -5 48 -22 36 -16 41 14 13 21 -20 21 -20 23 6 1 18 -2
22 -7 12 -7 -10 -11 -7 -19 12 -5 14 -17 34 -26 43 -17 16 -17 19 1 52 19 35
42 48 29 17 -4 -10 -9 -29 -11 -43 -2 -17 -2 -19 2 -5 4 11 13 24 21 28 8 5
11 16 8 28 -5 14 0 22 17 28 l23 10 -22 0 c-25 1 -26 4 -17 39 7 25 15 27 32
10z m-7533 -252 c21 -54 26 -261 8 -285 -7 -9 -13 -27 -13 -40 0 -20 2 -21 15
-11 12 10 15 10 15 -3 0 -9 -4 -19 -10 -22 -12 -7 -14 -45 -2 -45 4 0 15 15
25 33 19 32 19 32 35 11 10 -11 25 -23 35 -27 9 -3 17 -13 17 -20 0 -8 7 -20
15 -27 26 -21 18 -58 -15 -75 -27 -14 -33 -14 -60 0 -16 9 -31 21 -31 28 -1 6
-3 19 -4 27 -1 8 -3 21 -4 28 0 6 -5 12 -11 12 -5 0 -8 -13 -6 -30 2 -16 -3
-38 -10 -47 -13 -17 -15 -17 -33 5 -11 12 -24 22 -30 22 -15 0 -14 17 1 22 7
3 8 9 3 18 -5 8 -8 31 -6 52 1 23 -2 38 -9 38 -6 0 -1 10 10 22 14 16 20 33
18 56 -1 20 3 36 12 42 11 7 9 12 -11 29 -13 11 -19 20 -13 21 7 0 12 10 13
23 3 53 3 95 -1 143 -3 44 -1 50 14 46 9 -2 24 -23 33 -46z m6963 14 c20 0 14
-16 -20 -55 -18 -20 -33 -40 -33 -43 -1 -20 -40 -62 -57 -62 -12 0 -18 -5 -15
-12 8 -24 -11 -55 -37 -60 -15 -3 -26 -1 -26 6 0 6 -4 5 -9 -3 -7 -11 -14 -10
-43 3 -29 14 -38 27 -57 81 -16 44 -21 74 -16 95 7 30 7 31 31 15 14 -9 24
-11 24 -5 0 6 5 8 12 4 23 -14 157 -12 169 2 6 8 8 14 4 14 -4 0 -2 7 6 16 7
9 21 13 33 10 12 -3 27 -6 34 -6z m-5161 -300 c3 -11 9 -17 14 -15 11 8 7 -37
-5 -54 -9 -11 -7 -13 12 -7 18 6 22 4 22 -12 0 -11 6 -23 13 -26 10 -5 10 -7
0 -12 -15 -7 -17 -46 -3 -60 6 -6 6 -22 0 -44 -12 -44 -9 -120 5 -120 5 0 3
-5 -5 -10 -13 -8 -13 -10 -1 -10 11 0 9 -4 -5 -15 -13 -10 -14 -14 -5 -15 11
0 11 -3 1 -15 -7 -8 -17 -15 -22 -15 -6 0 -5 7 2 15 10 12 10 15 0 15 -10 0
-10 3 0 15 8 9 8 15 2 15 -12 0 -23 30 -28 70 -4 39 -12 67 -23 89 -15 27 -14
97 1 121 9 13 9 23 2 30 -12 12 -6 80 8 80 5 0 12 -9 15 -20z m-1276 -587 c11
-21 14 -72 12 -250 -2 -217 -3 -225 -25 -253 -13 -15 -40 -36 -60 -47 -21 -10
-38 -21 -38 -25 0 -5 -5 -8 -11 -8 -7 0 -9 13 -5 38 4 20 7 56 7 79 0 23 4 45
9 48 6 3 10 12 10 18 0 9 -2 9 -8 -1 -5 -6 -9 51 -9 128 0 77 3 140 8 140 5 0
9 9 9 21 0 13 -4 18 -12 13 -9 -6 -9 -3 0 9 9 10 11 27 7 45 -5 23 -2 31 12
36 10 3 29 13 43 21 33 19 34 19 51 -12z m-381 -20 c34 -9 35 -11 34 -59 -1
-77 -13 -243 -20 -269 -3 -12 -1 -26 5 -30 6 -3 8 -11 5 -17 -10 -16 -14 -78
-6 -78 4 0 7 -25 7 -55 0 -30 -3 -55 -7 -55 -4 0 -6 -13 -6 -30 1 -20 6 -30
17 -31 10 0 12 -2 4 -6 -10 -3 -10 -10 -2 -25 14 -25 -4 -46 -55 -63 -62 -22
-61 -24 -57 364 3 337 8 394 34 373 7 -6 28 -14 47 -19z"/>
<path d="M1803 2312 c-29 -4 -29 -13 1 -41 13 -12 26 -36 30 -52 3 -16 25 -49
48 -74 65 -69 67 -72 57 -82 -12 -12 15 -69 36 -77 8 -3 12 -12 9 -21 -4 -8
-1 -15 6 -15 7 0 10 -6 7 -13 -4 -10 3 -12 24 -9 16 2 31 8 34 12 11 17 -8 40
-34 40 -14 0 -21 4 -16 8 12 8 13 27 3 38 -5 4 -8 0 -8 -10 0 -15 -2 -16 -15
-2 -17 17 -19 33 -5 38 6 2 12 13 12 24 2 16 7 19 25 16 19 -4 23 0 23 23 0
18 -6 28 -19 32 -17 4 -18 9 -10 31 7 18 7 28 0 30 -6 2 -11 12 -11 23 0 11
-7 19 -16 19 -11 0 -14 -6 -9 -20 3 -11 2 -20 -3 -20 -14 0 -33 26 -25 34 4 4
0 4 -10 0 -10 -3 -17 -1 -17 5 0 6 -11 11 -25 11 -14 0 -25 6 -25 13 -1 19
-42 43 -67 39z"/>
</g>
</svg>
